<svg width="120" height="120" viewBox="0 0 120 120" fill="none" xmlns="http://www.w3.org/2000/svg">
  <!-- Background circle -->
  <circle cx="60" cy="60" r="58" fill="#ffffff" stroke="#000000" stroke-width="4"/>
  
  <!-- Shield shape -->
  <path d="M30 45C30 40 33 35 38 35H82C87 35 90 40 90 45V65C90 75 85 82 75 88L60 95L45 88C35 82 30 75 30 65V45Z" fill="#000000"/>
  
  <!-- Inner shield highlight -->
  <path d="M38 45C38 42 40 40 43 40H77C80 40 82 42 82 45V63C82 70 79 75 72 79L60 84L48 79C41 75 38 70 38 63V45Z" fill="#ffffff"/>
  
  <!-- Guardian symbol (G) -->
  <path d="M50 55C50 50 53 47 58 47H70C72 47 74 49 74 51C74 53 72 55 70 55H62V65H68C70 65 72 67 72 69C72 71 70 73 68 73H58C53 73 50 70 50 65V55Z" fill="#000000"/>
  
  <!-- Location pin -->
  <circle cx="60" cy="60" r="3" fill="#ff0000"/>
  
  <!-- Safety rays -->
  <path d="M60 25L63 32L60 30L57 32L60 25Z" fill="#000000"/>
  <path d="M95 60L88 63L90 60L88 57L95 60Z" fill="#000000"/>
  <path d="M60 95L57 88L60 90L63 88L60 95Z" fill="#000000"/>
  <path d="M25 60L32 57L30 60L32 63L25 60Z" fill="#000000"/>
</svg>
